<?xml version="1.0" standalone="no"?>
<!DOCTYPE svg PUBLIC "-//W3C//DTD SVG 20010904//EN"
 "http://www.w3.org/TR/2001/REC-SVG-20010904/DTD/svg10.dtd">
<svg version="1.0" xmlns="http://www.w3.org/2000/svg"
 width="150.000000pt" height="150.000000pt" viewBox="0 0 150.000000 150.000000"
 preserveAspectRatio="xMidYMid meet">

<g transform="translate(0.000000,150.000000) scale(0.100000,-0.100000)"
fill="#000000" stroke="none">
<path d="M729 1226 c-13 -5 -25 -11 -27 -12 -2 -1 -5 -22 -8 -47 -4 -37 -1
-50 15 -66 20 -20 21 -32 21 -231 0 -182 -2 -209 -15 -204 -11 5 -15 -1 -15
-20 0 -17 5 -26 16 -26 13 0 15 -9 12 -45 -3 -45 -3 -45 29 -45 l33 0 1 113
c1 105 2 109 11 55 5 -32 5 -84 1 -115 l-8 -58 -48 -3 c-51 -3 -59 8 -34 49
10 17 9 22 -5 33 -22 16 -24 72 -3 80 15 5 22 66 7 66 -11 0 -42 -38 -42 -52
0 -8 -3 -9 -10 -2 -16 16 -1 43 31 60 16 8 29 21 29 29 0 24 -43 17 -69 -10
-21 -23 -23 -31 -17 -85 7 -57 5 -62 -23 -98 -25 -29 -31 -45 -30 -82 1 -93
43 -123 169 -123 97 0 132 12 152 53 31 61 21 126 -26 170 -26 26 -34 54 -16
65 6 3 10 24 10 45 0 30 -5 40 -20 45 -11 4 -18 11 -15 16 6 9 -8 13 -32 10
-10 -1 -13 20 -13 79 l0 80 153 2 c130 2 137 3 45 5 l-107 4 -4 27 -4 27 -2
-27 c-1 -26 -4 -28 -41 -28 -40 0 -40 0 -40 40 l0 39 93 4 92 3 -94 2 -94 2 8
38 c18 96 15 122 -19 138 -15 7 -30 7 -47 0z m58 -88 c-2 -13 -4 -5 -4 17 -1
22 1 32 4 23 2 -10 2 -28 0 -40z m-8 -259 c-2 -115 -7 -209 -11 -209 -4 0 -8
97 -8 216 0 150 3 213 11 209 7 -5 9 -76 8 -216z m-3 -300 c-5 -47 -16 -47
-16 0 0 25 4 40 10 36 5 -3 8 -19 6 -36z m-166 -49 c-6 -42 -8 -47 -9 -20 -1
34 8 84 14 78 2 -2 0 -28 -5 -58z m215 -60 c-7 -11 -45 -33 -45 -26 0 2 7 12
16 20 17 18 39 22 29 6z m-85 -40 c0 -13 -11 -13 -30 0 -12 8 -11 10 8 10 12
0 22 -4 22 -10z"/>
<path d="M595 1073 c-11 -2 -30 -9 -42 -15 -20 -10 -20 -12 -6 -27 12 -12 17
-13 21 -3 5 17 62 16 62 -2 0 -8 -7 -16 -15 -20 -8 -3 -15 -15 -15 -27 0 -18
-4 -21 -27 -16 -16 3 -46 2 -68 -3 -30 -6 -33 -8 -13 -9 14 0 28 -7 31 -13 3
-10 9 -10 26 0 11 6 56 13 98 14 56 1 65 3 30 5 -41 4 -48 7 -42 21 8 21 8 18
6 65 -1 37 -4 39 -46 30z"/>
<path d="M458 1043 c6 -2 18 -2 25 0 6 3 1 5 -13 5 -14 0 -19 -2 -12 -5z"/>
<path d="M673 1043 c9 -2 25 -2 35 0 9 3 1 5 -18 5 -19 0 -27 -2 -17 -5z"/>
<path d="M942 1016 c-21 -11 -22 -14 -7 -26 19 -15 39 -1 33 23 -2 13 -7 14
-26 3z"/>
<path d="M700 999 c0 -5 5 -7 10 -4 6 3 10 8 10 11 0 2 -4 4 -10 4 -5 0 -10
-5 -10 -11z"/>
<path d="M430 935 c0 -22 4 -30 15 -30 15 -1 35 -15 35 -25 0 -4 -21 -8 -46
-8 -25 0 -48 -3 -51 -6 -4 -3 17 -6 45 -6 40 0 52 -4 55 -17 4 -17 5 -17 6 0
1 15 15 17 119 19 l117 2 -115 5 c-103 5 -115 8 -118 25 -4 19 -39 55 -54 56
-5 0 -8 -7 -8 -15z"/>
<path d="M910 896 c0 -23 -4 -25 -52 -29 l-53 -3 53 -2 c55 -2 58 -5 42 -46
-9 -24 -7 -26 16 -26 24 0 26 2 20 35 l-7 34 98 4 98 3 -97 2 c-98 2 -103 4
-99 40 1 6 -3 12 -9 12 -5 0 -10 -11 -10 -24z"/>
<path d="M400 825 c-6 -8 -9 -19 -5 -25 11 -17 30 -11 42 15 10 22 9 25 -7 25
-10 0 -23 -7 -30 -15z"/>
<path d="M1035 780 c4 -14 2 -18 -7 -15 -10 4 -12 -5 -10 -40 4 -41 1 -46 -26
-62 -75 -43 -53 -152 32 -168 25 -5 36 -13 39 -29 4 -20 4 -20 6 2 0 13 10 32
21 44 11 12 20 29 20 38 0 19 -30 50 -48 50 -23 0 -23 23 1 58 23 33 33 76 28
125 -1 12 -10 17 -32 17 -26 0 -29 -3 -24 -20z m45 -38 c0 -14 -39 -46 -47
-39 -3 4 2 16 12 27 19 21 35 26 35 12z m-50 -136 c0 -7 -7 -19 -15 -26 -17
-14 -20 -40 -5 -40 6 0 13 7 16 15 10 26 24 16 24 -16 0 -27 -3 -30 -26 -27
-15 2 -33 12 -40 23 -11 17 -10 25 7 53 22 33 39 42 39 18z m50 -61 c0 -8 -4
-17 -10 -20 -6 -4 -10 5 -10 20 0 15 4 24 10 20 6 -3 10 -12 10 -20z"/>
<path d="M558 713 c7 -3 16 -2 19 1 4 3 -2 6 -13 5 -11 0 -14 -3 -6 -6z"/>
<path d="M933 713 c9 -2 25 -2 35 0 9 3 1 5 -18 5 -19 0 -27 -2 -17 -5z"/>
<path d="M340 670 c0 -5 12 -12 28 -15 15 -3 45 -9 67 -14 22 -5 44 -6 50 -1
6 5 28 10 49 12 22 2 41 9 44 17 3 9 0 11 -8 6 -7 -4 -20 -9 -29 -10 -9 0 -32
-5 -52 -9 -24 -5 -54 -2 -89 8 -63 19 -60 19 -60 6z"/>
<path d="M358 551 l4 -51 49 0 c27 0 49 -3 49 -6 0 -4 -16 -23 -37 -42 -21
-21 -31 -38 -24 -40 6 -2 24 8 38 22 l26 27 27 -26 c14 -14 32 -25 40 -25 8 0
-2 16 -23 36 -20 20 -37 40 -37 45 0 5 18 9 39 9 l39 0 4 50 c2 35 -1 50 -10
50 -6 0 -11 -3 -11 -7 3 -15 -23 -73 -32 -73 -13 0 -11 12 6 34 23 30 18 36
-27 36 -40 0 -44 -3 -62 -41 -10 -22 -20 -38 -23 -35 -3 3 2 19 11 37 19 37
19 37 -20 45 l-29 6 3 -51z"/>
<path d="M997 464 c-4 -4 -7 -18 -7 -31 0 -17 6 -23 21 -23 16 0 20 5 17 27
-3 26 -18 39 -31 27z"/>
<path d="M1056 425 c-3 -9 0 -15 9 -15 9 0 12 6 9 15 -4 8 -7 15 -9 15 -2 0
-5 -7 -9 -15z"/>
<path d="M448 323 c-27 -6 -23 -34 4 -30 22 4 35 22 21 29 -4 3 -16 3 -25 1z"/>
<path d="M570 316 c0 -8 4 -17 9 -20 5 -4 7 3 4 14 -6 23 -13 26 -13 6z"/>
<path d="M747 310 c-4 -15 0 -20 14 -20 17 0 18 3 9 20 -6 11 -12 20 -14 20
-2 0 -6 -9 -9 -20z"/>
<path d="M862 310 c-11 -17 -10 -20 7 -20 14 0 18 5 14 20 -3 11 -6 20 -7 20
-1 0 -7 -9 -14 -20z"/>
<path d="M913 315 c-3 -9 -3 -18 0 -21 9 -9 27 6 27 22 0 19 -19 18 -27 -1z"/>
<path d="M611 304 c0 -11 3 -14 6 -6 3 7 2 16 -1 19 -3 4 -6 -2 -5 -13z"/>
<path d="M970 311 c0 -5 9 -11 20 -14 13 -3 20 0 20 9 0 8 -9 14 -20 14 -11 0
-20 -4 -20 -9z"/>
<path d="M1045 310 c3 -5 8 -10 11 -10 2 0 4 5 4 10 0 6 -5 10 -11 10 -5 0 -7
-4 -4 -10z"/>
</g>
</svg>
